<svg xmlns="http://www.w3.org/2000/svg" viewBox="0 0 800 600">
  <defs>
    <marker id="arrow" markerWidth="10" markerHeight="10" refX="0" refY="3" orient="auto" markerUnits="strokeWidth">
      <path d="M0,0 L0,6 L9,3 z" fill="#000"/>
    </marker>
  </defs>
  
  <!-- GameManager -->
  <rect x="300" y="20" width="200" height="100" fill="#ADD8E6" stroke="black"/>
  <text x="400" y="40" text-anchor="middle" font-weight="bold">GameManager</text>
  <line x1="300" y1="50" x2="500" y2="50" stroke="black"/>
  <text x="310" y="70" font-size="12">- currentState: GameState</text>
  <line x1="300" y1="80" x2="500" y2="80" stroke="black"/>
  <text x="310" y="100" font-size="12">+ ChangeState(GameState)</text>
  <text x="310" y="115" font-size="12">+ StartGame()</text>
  
  <!-- LevelManager -->
  <rect x="300" y="200" width="200" height="100" fill="#98FB98" stroke="black"/>
  <text x="400" y="220" text-anchor="middle" font-weight="bold">LevelManager</text>
  <line x1="300" y1="230" x2="500" y2="230" stroke="black"/>
  <text x="310" y="250" font-size="12">- currentLevel: int</text>
  <text x="310" y="265" font-size="12">- brickInitializer: BrickInitializer</text>
  <line x1="300" y1="275" x2="500" y2="275" stroke="black"/>
  <text x="310" y="295" font-size="12">+ InitializeLevel()</text>
  <text x="310" y="310" font-size="12">+ NextLevel()</text>
  
  <!-- GameState -->
  <rect x="20" y="20" width="200" height="100" fill="#FFB6C1" stroke="black"/>
  <text x="120" y="40" text-anchor="middle" font-weight="bold">GameState</text>
  <line x1="20" y1="50" x2="220" y2="50" stroke="black"/>
  <text x="30" y="70" font-size="12"># gameManager: GameManager</text>
  <line x1="20" y1="80" x2="220" y2="80" stroke="black"/>
  <text x="30" y="100" font-size="12">+ EnterState()</text>
  <text x="30" y="115" font-size="12">+ UpdateState()</text>
  
  <!-- BrickInitializer -->
  <rect x="580" y="200" width="200" height="100" fill="#F0E68C" stroke="black"/>
  <text x="680" y="220" text-anchor="middle" font-weight="bold">BrickInitializer</text>
  <line x1="580" y1="230" x2="780" y2="230" stroke="black"/>
  <text x="590" y="250" font-size="12">- brickFactory: BrickFactory</text>
  <line x1="580" y1="260" x2="780" y2="260" stroke="black"/>
  <text x="590" y="280" font-size="12">+ InitializeLevel(int)</text>
  <text x="590" y="295" font-size="12">+ GetRemainingBrickCount()</text>
  
  <!-- Relationships -->
  <line x1="220" y1="70" x2="300" y2="70" stroke="black" marker-end="url(#arrow)"/>
  <line x1="400" y1="120" x2="400" y2="200" stroke="black" marker-end="url(#arrow)"/>
  <line x1="500" y1="250" x2="580" y2="250" stroke="black" marker-end="url(#arrow)"/>
</svg>
